<?xml version="1.0" ?><svg data-name="Layer 1" height="100%" id="Layer_1" viewBox="0 0 58 58" width="100%" xmlns="http://www.w3.org/2000/svg"><defs><style>.cls-1{fill:#09816c;}.cls-2{fill:#09816c;}.cls-3{fill:#dcdfe2;}</style></defs><title/><path class="cls-1" d="M51.66,8H12.34A4.34,4.34,0,0,0,8,12.34V51.66A4.34,4.34,0,0,0,12.34,56H51.66A4.34,4.34,0,0,0,56,51.66V12.34A4.34,4.34,0,0,0,51.66,8ZM51,49.55"/><path class="cls-2" d="M50.55,29.8l-2.21-2.21-6.93-2.33H29.94l-8.11-8.11L15,21.63v9.43l.65,19.49h0A18.63,18.63,0,0,0,28.77,56H51.66A4.34,4.34,0,0,0,56,51.66V43A18.6,18.6,0,0,0,50.55,29.8Z"/><rect class="cls-3" height="25.07" rx="1.26" width="7.91" x="14.95" y="25.64"/><path class="cls-3" d="M18.9,23.51A5.11,5.11,0,1,1,24,18.4a5.12,5.12,0,0,1-5.11,5.11Z"/><path class="cls-3" d="M51,49.55a1.16,1.16,0,0,1-1.16,1.16H44a1.16,1.16,0,0,1-1.16-1.16V39c0-1.58.46-6.91-4.13-6.91-3.55,0-4.27,3.65-4.42,5.29v12.2a1.16,1.16,0,0,1-1.16,1.16H27.58a1.16,1.16,0,0,1-1.17-1.16V26.8a1.16,1.16,0,0,1,1.17-1.16h5.58a1.16,1.16,0,0,1,1.16,1.16v.42a.53.53,0,0,0,.93.36c1.31-1.37,3.23-2.32,6.52-2.32C51,25.26,51,33.89,51,38.64Z"/></svg>